<svg xmlns="http://www.w3.org/2000/svg" viewBox="0 0 512 512" width="24" height="24">
  <path fill="#33CCFF" d="M416.6 188.6c-17.4-17.4-40.6-27-65.3-27H160.7c-24.7 0-47.9 9.6-65.3 27-17.4 17.4-27 40.6-27 65.3v4.2c0 24.7 9.6 47.9 27 65.3 17.4 17.4 40.6 27 65.3 27h190.6c24.7 0 47.9-9.6 65.3-27 17.4-17.4 27-40.6 27-65.3v-4.2c0-24.7-9.6-47.9-27-65.3z"/>
  <path fill="#FFFFFF" d="M351.3 188.6c-17.4-17.4-40.6-27-65.3-27H95.4c-24.7 0-47.9 9.6-65.3 27-17.4 17.4-27 40.6-27 65.3v4.2c0 24.7 9.6 47.9 27 65.3 17.4 17.4 40.6 27 65.3 27h190.6c24.7 0 47.9-9.6 65.3-27 17.4 17.4 27 40.6 27 65.3v4.2c0 24.7-9.6 47.9-27 65.3 17.4 17.4 40.6 27 65.3 27h190.6c24.7 0 47.9-9.6 65.3-27 17.4-17.4 27-40.6 27-65.3v-4.2c0-24.7-9.6-47.9-27-65.3-17.4-17.4-40.6-27-65.3-27H351.3z"/>
  <circle fill="#FFCC00" cx="160" cy="256" r="32"/>
  <circle fill="#FFCC00" cx="352" cy="256" r="32"/>
  <path fill="#33CCFF" d="M256 288c-17.7 0-32-14.3-32-32s14.3-32 32-32 32 14.3 32 32-14.3 32-32 32z"/>
</svg>

